<?xml version="1.0" encoding="UTF-8"?>
<svg xmlns="http://www.w3.org/2000/svg" xmlns:xlink="http://www.w3.org/1999/xlink" width="22px" height="22px" viewBox="0 0 22 22" version="1.1">
<g id="surface1">
<path style="fill-rule:nonzero;fill:rgb(100%,100%,100%);fill-opacity:1;stroke-width:1;stroke-linecap:butt;stroke-linejoin:miter;stroke:rgb(100%,100%,100%);stroke-opacity:1;stroke-miterlimit:4;" d="M 93.272727 221 L 265.727273 221 C 270.181818 221 273.818182 217.363636 273.818182 212.909091 C 273.818182 208.454545 270.181818 204.818182 265.727273 204.818182 L 93.272727 204.818182 C 88.727273 204.818182 85.181818 208.454545 85.181818 212.909091 C 85.181818 217.363636 88.727273 221 93.272727 221 Z M 93.272727 221 " transform="matrix(0.0429688,0,0,0.0429688,0,0)"/>
<path style="fill-rule:nonzero;fill:rgb(100%,100%,100%);fill-opacity:1;stroke-width:1;stroke-linecap:butt;stroke-linejoin:miter;stroke:rgb(100%,100%,100%);stroke-opacity:1;stroke-miterlimit:4;" d="M 93.272727 177.818182 L 190.272727 177.818182 C 194.727273 177.818182 198.363636 174.272727 198.363636 169.727273 C 198.363636 165.272727 194.727273 161.727273 190.272727 161.727273 L 93.272727 161.727273 C 88.727273 161.727273 85.181818 165.272727 85.181818 169.727273 C 85.181818 174.272727 88.727273 177.818182 93.272727 177.818182 Z M 93.272727 177.818182 " transform="matrix(0.0429688,0,0,0.0429688,0,0)"/>
<path style="fill-rule:nonzero;fill:rgb(100%,100%,100%);fill-opacity:1;stroke-width:1;stroke-linecap:butt;stroke-linejoin:miter;stroke:rgb(100%,100%,100%);stroke-opacity:1;stroke-miterlimit:4;" d="M 114.818182 398.272727 L 395.090909 398.272727 C 411.363636 398.272727 424.727273 385 424.727273 368.636364 L 424.727273 277.545455 C 424.727273 272.363636 423.363636 267.181818 420.727273 262.727273 C 418.454545 258.909091 413.545455 257.545455 409.636364 259.818182 C 405.818182 262 404.454545 267 406.727273 270.818182 C 407.909091 272.818182 408.545455 275.181818 408.545455 277.545455 L 408.545455 368.636364 C 408.545455 376.090909 402.454545 382.090909 395.090909 382.090909 L 114.818182 382.090909 C 107.363636 382.090909 101.363636 376.090909 101.363636 368.636364 L 101.363636 277.545455 C 101.363636 270.090909 107.363636 264.090909 114.818182 264.090909 L 265.727273 264.090909 C 270.181818 264.090909 273.818182 260.454545 273.818182 256 C 273.818182 251.545455 270.181818 247.909091 265.727273 247.909091 L 114.818182 247.909091 C 98.454545 247.909091 85.181818 261.181818 85.181818 277.545455 L 85.181818 368.636364 C 85.181818 385 98.454545 398.272727 114.818182 398.272727 Z M 114.818182 398.272727 " transform="matrix(0.0429688,0,0,0.0429688,0,0)"/>
<path style="fill-rule:nonzero;fill:rgb(100%,100%,100%);fill-opacity:1;stroke-width:1;stroke-linecap:butt;stroke-linejoin:miter;stroke:rgb(100%,100%,100%);stroke-opacity:1;stroke-miterlimit:4;" d="M 477.090909 412.272727 C 478.727273 407.181818 479.636364 401.727273 479.636364 396.090909 L 479.636364 159 C 479.636364 130.727273 456.727273 107.818182 428.454545 107.818182 L 382.636364 107.818182 L 382.636364 29.636364 C 382.636364 13.272727 369.363636 0 353 0 L 331.454545 0 C 315.090909 0 301.818182 13.272727 301.818182 29.636364 L 301.818182 107.818182 L 83.545455 107.818182 C 55.272727 107.818182 32.363636 130.727273 32.363636 159 L 32.363636 396.090909 C 32.363636 401.727273 33.272727 407.181818 34.909091 412.272727 C 14.454545 419.090909 0 438.363636 0 460.818182 C 0 489 23 512 51.181818 512 L 460.818182 512 C 489 512 512 489 512 460.818182 C 512 438.363636 497.545455 419.090909 477.090909 412.272727 Z M 318 29.636364 C 318 22.181818 324 16.181818 331.454545 16.181818 L 353 16.181818 C 360.454545 16.181818 366.454545 22.181818 366.454545 29.636364 L 366.454545 43.090909 L 318 43.090909 Z M 366.454545 59.272727 L 366.454545 247.909091 L 350.272727 247.909091 L 350.272727 59.272727 Z M 318 59.272727 L 334.181818 59.272727 L 334.181818 247.909091 L 318 247.909091 Z M 318 264.090909 L 366.454545 264.090909 L 366.454545 284.727273 C 366.454545 285.363636 366.272727 285.909091 365.909091 286.363636 L 344.363636 315.090909 C 343.727273 316 342.727273 316.181818 342.272727 316.181818 C 341.727273 316.181818 340.818182 316 340.090909 315.090909 L 318.545455 286.363636 C 318.181818 285.909091 318 285.363636 318 284.727273 Z M 48.545455 159 C 48.545455 139.636364 64.181818 124 83.545455 124 L 301.818182 124 L 301.818182 161.727273 L 244.181818 161.727273 C 239.636364 161.727273 236.090909 165.272727 236.090909 169.727273 C 236.090909 174.272727 239.636364 177.818182 244.181818 177.818182 L 301.818182 177.818182 L 301.818182 284.727273 C 301.818182 288.818182 303.181818 292.818182 305.545455 296.090909 L 327.181818 324.818182 C 330.727273 329.636364 336.272727 332.363636 342.272727 332.363636 C 348.181818 332.363636 353.727273 329.636364 357.363636 324.818182 L 378.909091 296.090909 C 381.272727 292.818182 382.636364 288.818182 382.636364 284.727273 L 382.636364 221 L 416.636364 221 C 421.090909 221 424.727273 217.363636 424.727273 212.909091 C 424.727273 208.454545 421.090909 204.818182 416.636364 204.818182 L 382.636364 204.818182 L 382.636364 177.818182 L 416.636364 177.818182 C 421.090909 177.818182 424.727273 174.272727 424.727273 169.727273 C 424.727273 165.272727 421.090909 161.727273 416.636364 161.727273 L 382.636364 161.727273 L 382.636364 124 L 428.454545 124 C 447.818182 124 463.454545 139.636364 463.454545 159 L 463.454545 396.090909 C 463.454545 415.454545 447.818182 431.181818 428.454545 431.181818 L 83.545455 431.181818 C 64.181818 431.181818 48.545455 415.454545 48.545455 396.090909 Z M 460.818182 495.818182 L 51.181818 495.818182 C 31.909091 495.818182 16.181818 480.090909 16.181818 460.818182 C 16.181818 444.545455 27.272727 430.727273 42.636364 426.818182 C 51.909091 439.272727 66.818182 447.363636 83.545455 447.363636 L 428.454545 447.363636 C 445.181818 447.363636 460.090909 439.272727 469.363636 426.818182 C 484.727273 430.727273 495.818182 444.545455 495.818182 460.818182 C 495.818182 480.090909 480.090909 495.818182 460.818182 495.818182 Z M 460.818182 495.818182 " transform="matrix(0.0429688,0,0,0.0429688,0,0)"/>
<path style="fill-rule:nonzero;fill:rgb(100%,100%,100%);fill-opacity:1;stroke-width:1;stroke-linecap:butt;stroke-linejoin:miter;stroke:rgb(100%,100%,100%);stroke-opacity:1;stroke-miterlimit:4;" d="M 235.545455 463.454545 L 234.454545 463.454545 C 230 463.454545 226.363636 467.090909 226.363636 471.545455 C 226.363636 476 230 479.636364 234.454545 479.636364 L 235.545455 479.636364 C 240 479.636364 243.636364 476 243.636364 471.545455 C 243.636364 467.090909 240 463.454545 235.545455 463.454545 Z M 235.545455 463.454545 " transform="matrix(0.0429688,0,0,0.0429688,0,0)"/>
<path style="fill-rule:nonzero;fill:rgb(100%,100%,100%);fill-opacity:1;stroke-width:1;stroke-linecap:butt;stroke-linejoin:miter;stroke:rgb(100%,100%,100%);stroke-opacity:1;stroke-miterlimit:4;" d="M 433.818182 463.454545 L 272.181818 463.454545 C 267.727273 463.454545 264.090909 467.090909 264.090909 471.545455 C 264.090909 476 267.727273 479.636364 272.181818 479.636364 L 433.818182 479.636364 C 438.272727 479.636364 441.909091 476 441.909091 471.545455 C 441.909091 467.090909 438.272727 463.454545 433.818182 463.454545 Z M 433.818182 463.454545 " transform="matrix(0.0429688,0,0,0.0429688,0,0)"/>
<path style="fill-rule:nonzero;fill:rgb(100%,100%,100%);fill-opacity:1;stroke-width:1;stroke-linecap:butt;stroke-linejoin:miter;stroke:rgb(100%,100%,100%);stroke-opacity:1;stroke-miterlimit:4;" d="M 202.090909 463.454545 L 201 463.454545 C 196.545455 463.454545 192.909091 467.090909 192.909091 471.545455 C 192.909091 476 196.545455 479.636364 201 479.636364 L 202.090909 479.636364 C 206.545455 479.636364 210.181818 476 210.181818 471.545455 C 210.181818 467.090909 206.545455 463.454545 202.090909 463.454545 Z M 202.090909 463.454545 " transform="matrix(0.0429688,0,0,0.0429688,0,0)"/>
<path style="fill-rule:nonzero;fill:rgb(100%,100%,100%);fill-opacity:1;stroke-width:1;stroke-linecap:butt;stroke-linejoin:miter;stroke:rgb(100%,100%,100%);stroke-opacity:1;stroke-miterlimit:4;" d="M 164.363636 463.454545 L 78.181818 463.454545 C 73.636364 463.454545 70.090909 467.090909 70.090909 471.545455 C 70.090909 476 73.636364 479.636364 78.181818 479.636364 L 164.363636 479.636364 C 168.818182 479.636364 172.454545 476 172.454545 471.545455 C 172.454545 467.090909 168.818182 463.454545 164.363636 463.454545 Z M 164.363636 463.454545 " transform="matrix(0.0429688,0,0,0.0429688,0,0)"/>
</g>
</svg>
