<?xml version="1.0" encoding="UTF-8"?>
<svg xmlns="http://www.w3.org/2000/svg" xmlns:xlink="http://www.w3.org/1999/xlink" width="22px" height="22px" viewBox="0 0 22 22" version="1.1">
<g id="surface1">
<path style="fill-rule:nonzero;fill:rgb(100%,100%,100%);fill-opacity:1;stroke-width:1;stroke-linecap:butt;stroke-linejoin:miter;stroke:rgb(100%,100%,100%);stroke-opacity:1;stroke-miterlimit:4;" d="M 427.992543 41.555043 L 30.007457 41.555043 C 13.417969 41.555043 0 54.973011 0 71.5625 L 0 323.495028 C 0 340.084517 13.417969 353.502486 30.007457 353.502486 L 162.072798 353.502486 L 206.067472 405.791903 C 211.759943 412.541548 220.136009 416.444957 229 416.444957 C 237.863991 416.444957 246.240057 412.541548 251.932528 405.791903 L 295.927202 353.502486 L 427.992543 353.502486 C 444.582031 353.502486 458 340.084517 458 323.495028 L 458 71.5625 C 458 54.973011 444.582031 41.555043 427.992543 41.555043 Z M 323.901634 281.533381 L 82.866122 281.533381 C 74.571378 281.533381 67.821733 274.783736 67.821733 266.570312 C 67.821733 258.275568 74.571378 251.525923 82.866122 251.525923 L 323.901634 251.525923 C 332.196378 251.525923 338.946023 258.275568 338.946023 266.570312 C 338.946023 274.783736 332.196378 281.533381 323.901634 281.533381 Z M 67.821733 198.74858 C 67.821733 190.453835 74.571378 183.785511 82.866122 183.785511 L 267.95277 183.785511 C 276.247514 183.785511 282.997159 190.453835 282.997159 198.74858 C 282.997159 207.043324 276.247514 213.792969 267.95277 213.792969 L 82.866122 213.792969 C 74.571378 213.792969 67.821733 207.043324 67.821733 198.74858 Z M 375.133878 145.971236 L 82.866122 145.971236 C 74.571378 145.971236 67.821733 139.221591 67.821733 131.008168 C 67.821733 122.713423 74.571378 115.963778 82.866122 115.963778 L 375.133878 115.963778 C 383.428622 115.963778 390.178267 122.713423 390.178267 131.008168 C 390.178267 139.221591 383.428622 145.971236 375.133878 145.971236 Z M 375.133878 145.971236 " transform="matrix(0.0480349,0,0,0.0480349,0,0)"/>
</g>
</svg>
